<svg width="62" height="62" viewBox="0 0 62 62" fill="none" xmlns="http://www.w3.org/2000/svg">
<circle cx="31" cy="31" r="31" fill="#212121"/>
<g clip-path="url(#clip0_13190_2)">
<path fill-rule="evenodd" clip-rule="evenodd" d="M31.0227 12.5201C20.6555 12.5201 12.25 20.9255 12.25 31.2959C12.25 39.5904 17.6289 46.6271 25.0898 49.1107C26.0289 49.2826 26.3711 48.7029 26.3711 48.2045C26.3711 47.7599 26.3555 46.5787 26.3461 45.0123C21.1234 46.1466 20.0219 42.4951 20.0219 42.4951C19.168 40.3271 17.9367 39.7498 17.9367 39.7498C16.232 38.5841 18.0656 38.6076 18.0656 38.6076C19.95 38.7412 20.9414 40.5427 20.9414 40.5427C22.6164 43.4115 25.3359 42.5826 26.4055 42.1029C26.5766 40.8896 27.0602 40.0623 27.5977 39.5927C23.4289 39.1193 19.0453 37.5076 19.0453 30.3138C19.0453 28.2646 19.7773 26.588 20.9781 25.2755C20.7852 24.8005 20.1406 22.892 21.1617 20.3068C21.1617 20.3068 22.7383 19.8021 26.325 22.2318C27.8227 21.8154 29.4289 21.6068 31.025 21.5998C32.6195 21.6068 34.2258 21.8154 35.7258 22.2318C39.3102 19.8021 40.8836 20.3068 40.8836 20.3068C41.9078 22.892 41.2633 24.8005 41.0703 25.2755C42.2734 26.588 43.0008 28.2646 43.0008 30.3138C43.0008 37.5263 38.6102 39.113 34.4273 39.5779C35.1023 40.1576 35.7023 41.3029 35.7023 43.0552C35.7023 45.5646 35.6797 47.5896 35.6797 48.2045C35.6797 48.7076 36.0172 49.292 36.9703 49.1084C44.425 46.6201 49.7992 39.588 49.7992 31.2959C49.7992 20.9255 41.393 12.5201 31.0227 12.5201" fill="#00DF5E"/>
</g>
<defs>
<clipPath id="clip0_13190_2">
<rect width="50" height="50" fill="white" transform="translate(6 6)"/>
</clipPath>
</defs>
</svg>
