<?xml version="1.0" ?><!DOCTYPE svg  PUBLIC '-//W3C//DTD SVG 1.1//EN'  'http://www.w3.org/Graphics/SVG/1.1/DTD/svg11.dtd' ><svg enable-background="new 0 0 144.083 144" height="62px" id="linkedin" version="1.1" viewBox="0 0 144.083 144" width="62px" xml:space="preserve" xmlns="http://www.w3.org/2000/svg" xmlns:xlink="http://www.w3.org/1999/xlink"><rect height="36.734" width="14.078" x="41.143" y="59.11" style="fill: #00df5e"/>/><ellipse cx="48.042" cy="46.75" rx="7.125" ry="6.5" style="fill: #00df5e"/>/><path d="M90.608,58.28c-2.883,0-5.326,0.525-7.334,1.574c-2.006,1.05-3.988,2.796-5.949,5.24V59.11H64.215v36.734h14.078V78.203  c0-3.344,0.531-5.66,1.592-6.952c1.061-1.291,2.443-1.937,4.15-1.937c1.545,0,2.744,0.479,3.598,1.436  c0.854,0.957,1.279,2.588,1.279,4.895v20.199h14.148V72.497c0-4.843-1.102-8.423-3.305-10.741  C97.555,59.438,94.504,58.28,90.608,58.28z" style="fill: #00df5e"/></svg>